<svg width="142" height="69" viewBox="0 0 142 69" fill="none" xmlns="http://www.w3.org/2000/svg">
<path d="M18.5851 22.2881C18.4518 22.2882 18.3209 22.2519 18.2061 22.183C18.0913 22.1141 17.9968 22.0151 17.9324 21.8965C17.868 21.7778 17.8361 21.6437 17.8401 21.5082C17.844 21.3728 17.8837 21.2408 17.9549 21.1262L19.0515 19.3524L16.6109 20.7839C16.47 20.8659 16.3067 20.8989 16.1457 20.8778C15.9847 20.8567 15.8349 20.7828 15.719 20.6672C15.6031 20.5517 15.5276 20.4008 15.5038 20.2376C15.48 20.0744 15.5093 19.9077 15.5872 19.7629L16.742 17.6332L16.6213 17.7044C16.451 17.7949 16.2529 17.8151 16.0684 17.7607C15.8838 17.7062 15.7271 17.5814 15.631 17.4123C15.5348 17.2432 15.5066 17.0428 15.5523 16.8531C15.5981 16.6633 15.7141 16.4989 15.8763 16.3941L18.3155 14.9626C18.4563 14.8806 18.6197 14.8477 18.7807 14.8687C18.9416 14.8898 19.0915 14.9637 19.2073 15.0793C19.3232 15.1948 19.3988 15.3457 19.4226 15.5089C19.4463 15.6722 19.417 15.8388 19.3391 15.9836L18.1858 18.1043L20.9275 16.4941C21.0717 16.4092 21.2397 16.376 21.4047 16.3997C21.5697 16.4234 21.7221 16.5026 21.8376 16.6247C21.9531 16.7468 22.025 16.9048 22.0418 17.0733C22.0586 17.2418 22.0193 17.4112 21.9303 17.5544L20.8396 19.3373L20.9751 19.2585C21.0599 19.2037 21.1548 19.1669 21.2539 19.1504C21.3531 19.1338 21.4545 19.1378 21.5521 19.1621C21.6497 19.1864 21.7414 19.2305 21.8218 19.2918C21.9022 19.3531 21.9696 19.4302 22.0198 19.5187C22.0701 19.6071 22.1023 19.705 22.1144 19.8064C22.1265 19.9078 22.1183 20.0106 22.0903 20.1087C22.0623 20.2068 22.0151 20.2982 21.9515 20.3772C21.8879 20.4563 21.8092 20.5215 21.7202 20.5688L18.9636 22.1866C18.8489 22.2549 18.718 22.29 18.5851 22.2881V22.2881Z" fill="#46BCC4"/>
<path d="M44.0214 21.8549C43.883 21.8549 43.7474 21.8157 43.6297 21.7417C43.512 21.6678 43.4169 21.562 43.355 21.4362C43.2932 21.3104 43.267 21.1695 43.2794 21.0295C43.2918 20.8894 43.3424 20.7556 43.4254 20.643L44.7187 18.8586L43.1527 19.7766C43.0027 19.8644 42.8272 19.8963 42.6565 19.8669C42.4858 19.8375 42.3305 19.7485 42.2173 19.6154C42.1041 19.4822 42.0401 19.3131 42.0362 19.1371C42.0324 18.9611 42.0889 18.7893 42.1961 18.6511L42.8771 17.7786C42.7833 17.7531 42.6956 17.7089 42.6188 17.6485C42.5421 17.5882 42.4779 17.5129 42.43 17.4272C42.3316 17.2535 42.3049 17.0473 42.3557 16.8537C42.4065 16.66 42.5308 16.4948 42.7012 16.3941L45.1404 14.9626C45.2906 14.874 45.4665 14.8416 45.6378 14.8709C45.809 14.9001 45.9648 14.9893 46.0783 15.123C46.1917 15.2566 46.2557 15.4264 46.2591 15.6029C46.2625 15.7794 46.2052 15.9515 46.097 16.0896L45.799 16.4759L47.0611 15.7367C47.2093 15.6499 47.3824 15.6176 47.5513 15.6452C47.7202 15.6728 47.8746 15.7587 47.9886 15.8884C48.1025 16.0181 48.1691 16.1838 48.1771 16.3575C48.1851 16.5312 48.1341 16.7025 48.0325 16.8425L46.7392 18.6254L48.1145 17.8195C48.1993 17.7647 48.2941 17.7279 48.3933 17.7113C48.4924 17.6947 48.5938 17.6987 48.6914 17.723C48.789 17.7473 48.8808 17.7914 48.9612 17.8527C49.0415 17.914 49.1089 17.9912 49.1592 18.0796C49.2095 18.1681 49.2416 18.2659 49.2538 18.3673C49.2659 18.4687 49.2577 18.5716 49.2297 18.6697C49.2017 18.7678 49.1545 18.8591 49.0909 18.9382C49.0272 19.0173 48.9485 19.0824 48.8595 19.1298L44.3984 21.7488C44.2846 21.8184 44.1542 21.8551 44.0214 21.8549V21.8549Z" fill="#46BCC4"/>
<path d="M41.4719 46.6184C41.3224 46.6182 41.1764 46.5723 41.0529 46.4866C40.9294 46.4009 40.8341 46.2793 40.7794 46.1378C40.7248 45.9963 40.7133 45.8414 40.7464 45.6931C40.7796 45.5449 40.8559 45.4102 40.9653 45.3066L42.0873 44.2463L40.2695 45.3066C40.113 45.3951 39.9304 45.4232 39.7551 45.386C39.5799 45.3487 39.4237 45.2486 39.3151 45.1038C39.2066 44.9591 39.1529 44.7794 39.164 44.5977C39.1751 44.4161 39.2502 44.2445 39.3755 44.1145L40.7716 42.7027C40.6412 42.6356 40.5337 42.53 40.4632 42.3998C40.3644 42.2258 40.3376 42.0191 40.3888 41.8251C40.4399 41.6311 40.5648 41.4656 40.7359 41.3652L44.0586 39.4142C44.2151 39.3257 44.3977 39.2976 44.573 39.3348C44.7482 39.3721 44.9044 39.4722 45.013 39.617C45.1216 39.7617 45.1752 39.9414 45.1641 40.1231C45.153 40.3047 45.078 40.4763 44.9526 40.6063L44.4878 41.0759L47.0685 39.5611C47.2272 39.4674 47.4143 39.4365 47.594 39.4744C47.7737 39.5124 47.9333 39.6163 48.0422 39.7665C48.1511 39.9166 48.2017 40.1024 48.1843 40.2881C48.1668 40.4738 48.0825 40.6465 47.9476 40.7729L46.8301 41.8333L48.9042 40.6214C49.0484 40.5351 49.2171 40.5007 49.3829 40.5238C49.5488 40.5468 49.7021 40.626 49.8183 40.7485C49.9345 40.871 50.0067 41.0296 50.0233 41.199C50.04 41.3683 50 41.5384 49.91 41.6818L48.703 43.6722L50.503 42.6118C50.674 42.513 50.8765 42.4869 51.0664 42.5393C51.2563 42.5917 51.418 42.7184 51.5164 42.8916C51.6148 43.0648 51.6418 43.2705 51.5915 43.4638C51.5412 43.6572 51.4177 43.8225 51.248 43.9236L46.8792 46.4866C46.735 46.5729 46.5663 46.6073 46.4005 46.5843C46.2347 46.5613 46.0813 46.4821 45.9651 46.3596C45.8489 46.2371 45.7767 46.0784 45.7601 45.9091C45.7435 45.7398 45.7834 45.5697 45.8735 45.4263L47.0893 43.4329L41.8489 46.5169C41.7347 46.585 41.6043 46.6201 41.4719 46.6184V46.6184Z" fill="#46BCC4"/>
<path d="M18.1456 46.5821C18.0116 46.5823 17.8801 46.5458 17.7648 46.4764C17.6495 46.4069 17.5547 46.3072 17.4905 46.1877C17.4263 46.0681 17.395 45.9332 17.3999 45.797C17.4048 45.6609 17.4457 45.5286 17.5183 45.4142L19.1648 42.8057L14.0227 45.8247C13.8725 45.9133 13.6966 45.9457 13.5253 45.9164C13.3541 45.8872 13.1983 45.798 13.0848 45.6643C12.9714 45.5307 12.9074 45.3609 12.904 45.1844C12.9006 45.0079 12.9579 44.8358 13.0661 44.6977L14.6068 42.7285C14.4358 42.8273 14.2332 42.8534 14.0434 42.801C13.8535 42.7486 13.6918 42.622 13.5934 42.4488C13.495 42.2756 13.468 42.0698 13.5183 41.8765C13.5686 41.6831 13.6921 41.5178 13.8618 41.4167L17.2427 39.4323C17.3927 39.3436 17.5685 39.311 17.7398 39.3401C17.911 39.3691 18.0668 39.4581 18.1804 39.5915C18.294 39.7249 18.3582 39.8945 18.3619 40.0709C18.3656 40.2473 18.3086 40.4195 18.2007 40.5578L16.6526 42.5285L21.0765 39.9322C21.2207 39.8495 21.3878 39.818 21.5516 39.8426C21.7153 39.8672 21.8664 39.9465 21.9808 40.0681C22.0953 40.1897 22.1667 40.3466 22.1837 40.5139C22.2007 40.6813 22.1624 40.8497 22.0748 40.9925L20.4283 43.601L23.2341 41.9544C23.3782 41.8717 23.5454 41.8402 23.7091 41.8648C23.8729 41.8894 24.0239 41.9688 24.1384 42.0903C24.2528 42.2119 24.3242 42.3688 24.3412 42.5362C24.3583 42.7036 24.32 42.872 24.2324 43.0148L23.8748 43.5722L23.9776 43.5131C24.1478 43.4226 24.3459 43.4024 24.5305 43.4568C24.715 43.5113 24.8718 43.6361 24.9679 43.8052C25.0641 43.9743 25.0922 44.1747 25.0465 44.3644C25.0008 44.5542 24.8848 44.7186 24.7226 44.8234L21.9377 46.4579C21.7936 46.5406 21.6264 46.5721 21.4626 46.5475C21.2989 46.5229 21.1479 46.4435 21.0334 46.3219C20.9189 46.2004 20.8476 46.0435 20.8305 45.8761C20.8135 45.7087 20.8518 45.5403 20.9394 45.3975L21.2955 44.8401L18.5181 46.47C18.4062 46.5408 18.2775 46.5796 18.1456 46.5821V46.5821Z" fill="#46BCC4"/>
<path d="M40.5557 2.55964C35.5011 0.987087 30.1064 0.938273 25.025 2.41912C19.9437 3.89996 15.3938 6.84692 11.9263 10.903C8.40827 15.135 6.29225 20.3869 5.87922 25.9118C5.4662 31.4367 6.77718 36.9534 9.62574 41.6772C10.3037 42.7795 11.0639 43.8272 11.8995 44.8113C11.9542 44.9591 12.0602 45.0814 12.1975 45.1552C12.5194 45.5217 12.8516 45.8762 13.1914 46.2155C13.2597 46.3753 13.3855 46.5027 13.543 46.5715C18.4935 51.3556 25.0607 54.0265 31.8909 54.0339C38.7212 54.0412 45.2939 51.3843 50.2543 46.6109C50.6834 46.5169 51.1602 46.2034 51.2049 45.7686C51.2049 45.7353 51.1885 45.7171 51.1885 45.6868C51.3375 45.5248 51.4865 45.3551 51.6355 45.1915C52.1064 45.04 52.4923 44.7038 52.4565 44.2721C56.345 39.5847 58.5108 33.6696 58.5835 27.5383C58.5835 27.508 58.5641 27.4898 58.5597 27.4626C58.5552 27.4353 58.585 27.4111 58.5835 27.3823C58.5209 21.8449 56.7462 16.4679 53.5106 12.0128C50.2751 7.5578 45.7428 4.25059 40.5557 2.55964ZM11.3795 14.5658C13.9598 10.1149 17.8678 6.61538 22.5366 4.57478C27.2053 2.53419 32.3921 2.05862 37.3447 3.21706C42.7653 4.60283 47.5797 7.77967 51.0318 12.2487C54.4839 16.7177 56.3781 22.2258 56.417 27.9079C56.3466 33.1434 54.7295 38.2363 51.7756 42.5255C51.2437 41.5878 50.5045 40.7889 49.6164 40.1918C48.7283 39.5947 47.7158 39.216 46.6588 39.0855V22.1533C47.4732 21.9417 48.2009 21.4739 48.738 20.8166C49.2751 20.1593 49.5941 19.3462 49.6493 18.4936C49.6492 17.7318 49.4136 16.9893 48.976 16.371C48.5383 15.7526 47.9206 15.2896 47.2101 15.0475C46.3737 14.7719 45.4767 14.7484 44.6274 14.9799C43.7781 15.2113 43.0129 15.6878 42.4242 16.3517C41.9962 16.8288 41.7039 17.4152 41.5787 18.0483C41.4535 18.6813 41.5002 19.3371 41.7136 19.9452C41.9271 20.5534 42.2993 21.091 42.7903 21.5006C43.2814 21.9101 43.8729 22.176 44.5013 22.2699V24.736C42.2782 28.9774 36.3315 30.1346 32.1266 30.0604C28.6541 30.1314 25.246 29.1011 22.3759 27.1127C21.6327 26.5535 20.9645 25.8981 20.3882 25.1631C20.2317 24.9602 19.8801 24.4164 19.8518 24.38V22.0578C20.6556 21.8545 21.3758 21.3982 21.9093 20.754C22.4429 20.1098 22.7626 19.3108 22.8229 18.4709C22.8221 17.7219 22.587 16.9926 22.1514 16.3886C21.7158 15.7846 21.1025 15.3372 20.4001 15.1111C19.5625 14.8488 18.669 14.8321 17.8225 15.0628C16.9759 15.2935 16.2105 15.7623 15.6142 16.4153C15.111 16.9732 14.7984 17.6813 14.7229 18.4343C14.6475 19.1874 14.8132 19.945 15.1955 20.5946C15.4664 21.03 15.8274 21.4002 16.2532 21.6796C16.679 21.9589 17.1596 22.1407 17.6614 22.2124V24.6936C17.657 24.7237 17.657 24.7543 17.6614 24.7844V39.1006C16.6549 39.2785 15.6967 39.6705 14.8494 40.2507C14.002 40.831 13.2847 41.5865 12.7444 42.468C9.8864 38.4497 8.2363 33.675 7.99404 28.7225C7.75178 23.77 8.92779 18.8524 11.3795 14.5658ZM25.7568 45.29C25.6316 43.7122 24.9751 42.2266 23.8982 41.0834C22.8212 39.9402 21.3895 39.2095 19.8443 39.0143V27.6156C21.6472 29.0694 23.7377 30.1101 25.9728 30.6663C31.8659 32.2129 39.2102 31.5252 44.0841 27.5519C44.2226 27.4399 44.3597 27.3156 44.4983 27.1945V39.14C42.9983 39.3916 41.6167 40.1241 40.5552 41.2305C39.4937 42.3369 38.8079 43.7593 38.5978 45.29H25.7568ZM17.3992 16.797C17.3992 16.797 17.3992 16.797 17.4126 16.7834C17.4573 16.7349 17.5005 16.6865 17.5482 16.641C17.6007 16.6 17.6505 16.5555 17.6972 16.5077L17.7151 16.4971L17.8447 16.4092L17.9311 16.3577L17.946 16.3502L18.095 16.2866H18.1099L18.1919 16.2684C18.2167 16.2645 18.2408 16.2568 18.2634 16.2457L18.25 16.2547L18.3618 16.2441H18.472C18.5167 16.2441 18.5614 16.2441 18.6061 16.2532C18.6195 16.2532 18.7238 16.2714 18.7551 16.279C18.8326 16.2956 18.9041 16.3199 18.9861 16.3411C19.0027 16.3459 19.0196 16.3494 19.0367 16.3517C19.0517 16.3611 19.0671 16.3697 19.0829 16.3774C19.2254 16.4429 19.3637 16.5173 19.4972 16.6001C19.7059 16.7395 19.8919 16.9113 20.0485 17.1091C20.4234 17.5644 20.6365 18.1348 20.6534 18.7284C20.6525 19.0048 20.6155 19.2799 20.5432 19.5464C20.4799 19.7966 20.3707 20.0325 20.2213 20.2416C20.1856 20.2962 20.1468 20.3492 20.1081 20.4007C20.1035 20.4055 20.1 20.4111 20.0976 20.4173L20.0693 20.4446C19.9799 20.5355 19.889 20.6203 19.7967 20.7082L19.6044 20.8354C19.5404 20.8642 19.4733 20.89 19.4122 20.9218H19.3958C19.1372 20.8313 18.8587 20.8177 18.5927 20.8824L18.5272 20.8642C18.51 20.8592 18.4926 20.8552 18.475 20.8521L18.4303 20.8279C18.3841 20.8051 18.3349 20.7854 18.2887 20.7612C18.1721 20.7022 18.0591 20.6359 17.9505 20.5628C17.8728 20.5088 17.7996 20.4485 17.7315 20.3825C17.6178 20.275 17.5122 20.1591 17.4156 20.0356C17.113 19.6295 16.9295 19.1447 16.886 18.6371C16.8425 18.1296 16.9408 17.6199 17.1697 17.1666C17.2338 17.05 17.3068 16.944 17.3813 16.8349L17.3992 16.797ZM19.3541 40.7305C20.3937 40.9298 21.3493 41.4454 22.0943 42.209C22.8393 42.9726 23.3387 43.9482 23.5262 45.0067H14.8364C14.592 44.7477 14.3566 44.4781 14.1211 44.2084C14.4274 43.0812 15.1271 42.1059 16.0895 41.4652C17.0518 40.8245 18.2108 40.5623 19.3496 40.7275L19.3541 40.7305ZM44.1407 16.9788C44.2182 16.8834 44.3016 16.7955 44.3836 16.7031L44.3985 16.6849C44.4506 16.6501 44.4983 16.6047 44.5475 16.5668C44.5966 16.5289 44.6309 16.5123 44.6711 16.4835L44.7799 16.4274L44.847 16.3941L44.9453 16.3638L44.996 16.3532C45.0211 16.3406 45.0484 16.3333 45.0764 16.332H45.1003H45.0928C45.1584 16.3244 45.2239 16.3199 45.2895 16.3138H45.3059C45.3729 16.3138 45.443 16.3138 45.51 16.329C45.5443 16.329 45.592 16.3411 45.6233 16.3471C45.7571 16.381 45.8889 16.4224 46.0181 16.4714L46.0837 16.5016C46.1641 16.5456 46.2446 16.5895 46.3221 16.6395C46.3653 16.6668 46.4085 16.6971 46.4502 16.7274C46.4919 16.7576 46.6916 16.9273 46.5992 16.8425C46.6934 16.9322 46.7824 17.0272 46.8659 17.1273C47.2297 17.5714 47.4392 18.1251 47.462 18.7026C47.4785 19.2353 47.3254 19.7591 47.0254 20.1962L47.0105 20.2189C47.0105 20.2189 47.0105 20.2189 46.9956 20.2341C46.9539 20.284 46.9121 20.334 46.8689 20.3855C46.8257 20.437 46.7944 20.4598 46.7602 20.4991C46.752 20.5073 46.745 20.5164 46.7393 20.5264L46.7169 20.54C46.6324 20.6113 46.5427 20.6761 46.4487 20.7339H46.4309C46.3981 20.7476 46.1165 20.8975 46.2819 20.8082C46.4011 20.7445 46.258 20.7976 46.1537 20.8385C46.1254 20.8385 46.0375 20.8688 46.0151 20.8718C45.9466 20.8718 45.8795 20.8809 45.811 20.8869H45.7946C45.7261 20.8869 45.6575 20.8778 45.5905 20.8687C45.5637 20.8687 45.507 20.8521 45.4817 20.846C45.4301 20.8339 45.3804 20.8203 45.3327 20.8051C44.8975 20.6558 44.5148 20.3805 44.2316 20.0129C43.9299 19.6185 43.7476 19.1435 43.7069 18.6457C43.6661 18.1478 43.7687 17.6487 44.0021 17.2091C44.0349 17.1515 44.0692 17.0954 44.1034 17.0394C44.1079 17.0197 44.1258 16.997 44.1422 16.9758L44.1407 16.9788ZM49.7774 45.0658H40.7732C40.8694 43.9806 41.3162 42.9583 42.044 42.1584C42.7718 41.3586 43.7396 40.8261 44.7963 40.6442C46.007 40.5414 47.2145 40.8765 48.206 41.5904C49.1974 42.3043 49.9091 43.3511 50.2155 44.5462C50.071 44.7159 49.9294 44.8946 49.7789 45.0628L49.7774 45.0658ZM16.6363 46.7184H24.6318C24.9147 46.7018 25.1869 46.6024 25.4155 46.4321H38.7513C38.9751 46.5914 39.2442 46.6712 39.5171 46.6593H48.1846C45.9967 48.6871 43.4498 50.274 40.6794 51.3354C36.6288 52.8005 32.268 53.1451 28.0434 52.3338C23.8188 51.5225 19.8821 49.5846 16.6363 46.7184Z" fill="#46BCC4"/>
<path d="M18.2484 16.2457C18.2286 16.2479 18.2091 16.2525 18.1903 16.2593C18.1188 16.2835 18.1665 16.3078 18.2484 16.2457Z" fill="#46BCC4"/>
<path d="M45.0972 16.3229H45.0808C45.0544 16.3316 45.0276 16.3387 45.0003 16.3441C44.978 16.3684 45.0465 16.3759 45.0972 16.3229Z" fill="#46BCC4"/>
<path d="M59.9818 27.729C59.9818 43.0433 47.5651 55.4579 32.2483 55.4579C16.9315 55.4579 4.51476 43.0433 4.51476 27.729C4.51476 12.4147 16.9315 0 32.2483 0C47.5651 0 59.9818 12.4147 59.9818 27.729ZM8.31771 27.729C8.31771 40.9433 19.0318 51.6556 32.2483 51.6556C45.4648 51.6556 56.1789 40.9433 56.1789 27.729C56.1789 14.5146 45.4648 3.80232 32.2483 3.80232C19.0318 3.80232 8.31771 14.5146 8.31771 27.729Z" fill="#46BCC4"/>
<path d="M52.4601 61.8373C53.0045 62.6662 52.776 63.7837 51.9198 64.2842C48.4541 66.3098 44.6573 67.7177 40.699 68.4397C36.1512 69.2693 31.483 69.1768 26.9716 68.1676C22.4602 67.1584 18.1977 65.2531 14.4371 62.5648C10.6764 59.8765 7.49444 56.4601 5.08001 52.5185C2.66558 48.5768 1.06795 44.1902 0.381982 39.6192C-0.303982 35.0482 -0.0642922 30.386 1.08682 25.9095C2.23793 21.4329 4.27699 17.2332 7.08293 13.5598C9.52509 10.3627 12.5048 7.62096 15.8845 5.45492C16.7195 4.91979 17.819 5.22414 18.3101 6.08569C18.8011 6.94724 18.4974 8.03931 17.6657 8.57948C14.7025 10.504 12.0873 12.9247 9.93728 15.7394C7.42341 19.0305 5.59659 22.793 4.5653 26.8036C3.534 30.8142 3.31926 34.9912 3.93382 39.0864C4.54839 43.1816 5.97973 47.1116 8.14285 50.643C10.306 54.1744 13.1568 57.2352 16.5259 59.6436C19.8951 62.0521 23.714 63.759 27.7558 64.6632C31.7976 65.5674 35.9799 65.6503 40.0544 64.907C43.5392 64.2713 46.8843 63.0424 49.9455 61.2779C50.8048 60.7826 51.9157 61.0084 52.4601 61.8373Z" fill="#46BCC4"/>
<path d="M60.6784 44.2245L61.2201 43.412H65.8252L70.5464 59.1981H70.9333L75.6545 43.412H80.2595L80.8013 44.2245L74.6483 63.8411H66.8314L60.6784 44.2245Z" fill="#46BCC4"/>
<path d="M83.9615 57.5731V49.68C83.9615 45.5013 86.0512 43.412 90.2306 43.412H95.2613C99.4407 43.412 101.53 45.5013 101.53 49.68V55.5998H89.3019V57.96C89.3019 58.7854 89.7146 59.1981 90.5402 59.1981H100.756V62.1L98.4346 63.8411H90.2306C86.0512 63.8411 83.9615 61.7518 83.9615 57.5731ZM89.3019 51.4985H96.1901V49.2931C96.1901 48.4677 95.7773 48.0549 94.9518 48.0549H90.5402C89.7146 48.0549 89.3019 48.4677 89.3019 49.2931V51.4985Z" fill="#46BCC4"/>
<path d="M106.795 63.8411V43.412H118.094C122.274 43.412 124.363 45.5013 124.363 49.68V63.8411H119.023V49.2931C119.023 48.4677 118.61 48.0549 117.785 48.0549H112.135V63.8411H106.795Z" fill="#46BCC4"/>
<path d="M129.617 57.5731V37.1439H134.957V43.412H141.613V48.0549H134.957V57.96C134.957 58.7854 135.37 59.1981 136.195 59.1981H142V62.1L139.678 63.8411H135.886C131.706 63.8411 129.617 61.7518 129.617 57.5731Z" fill="#46BCC4"/>
</svg>
